{
  "accessors": [
    {
      "bufferView": 2,
      "componentType": 5126,
      "count": 52052,
      "max": [
        3.564920663833618,
        2.131671667098999,
        5.987171649932861
      ],
      "min": [
        -3.564920663833618,
        -2.131671667098999,
        -3.5762786865234375e-07
      ],
      "type": "VEC3"
    },
    {
      "bufferView": 2,
      "byteOffset": 624624,
      "componentType": 5126,
      "count": 52052,
      "max": [
        1.0,
        1.0,
        1.0
      ],
      "min": [
        -1.0,
        -1.0,
        -1.0
      ],
      "type": "VEC3"
    },
    {
      "bufferView": 3,
      "componentType": 5126,
      "count": 52052,
      "max": [
        1.0,
        1.0,
        1.0,
        1.0
      ],
      "min": [
        -1.0,
        -1.0,
        -1.0,
        -1.0
      ],
      "type": "VEC4"
    },
    {
      "bufferView": 1,
      "componentType": 5126,
      "count": 52052,
      "max": [
        0.9932171106338501,
        0.9930880069732666
      ],
      "min": [
        0.006782864220440388,
        0.006782844662666321
      ],
      "type": "VEC2"
    },
    {
      "bufferView": 1,
      "byteOffset": 416416,
      "componentType": 5126,
      "count": 52052,
      "max": [
        0.9932171106338501,
        0.9930880069732666
      ],
      "min": [
        0.006782864220440388,
        0.006782844662666321
      ],
      "type": "VEC2"
    },
    {
      "bufferView": 1,
      "byteOffset": 832832,
      "componentType": 5126,
      "count": 52052,
      "max": [
        0.9932171106338501,
        0.9930880069732666
      ],
      "min": [
        0.006782864220440388,
        0.006782844662666321
      ],
      "type": "VEC2"
    },
    {
      "bufferView": 0,
      "componentType": 5125,
      "count": 192684,
      "type": "SCALAR"
    }
  ],
  "asset": {
    "extras": {
      "author": "crow (https://sketchfab.com/crow.bite)",
      "license": "CC-BY-4.0 (http://creativecommons.org/licenses/by/4.0/)",
      "source": "https://sketchfab.com/3d-models/old-swings-d50ec77532da4bb5be9e8445cf4da0f5",
      "title": "Old Swings"
    },
    "generator": "Sketchfab-16.45.0",
    "version": "2.0"
  },
  "bufferViews": [
    {
      "buffer": 0,
      "byteLength": 770736,
      "name": "floatBufferViews",
      "target": 34963
    },
    {
      "buffer": 0,
      "byteLength": 1249248,
      "byteOffset": 770736,
      "byteStride": 8,
      "name": "floatBufferViews",
      "target": 34962
    },
    {
      "buffer": 0,
      "byteLength": 1249248,
      "byteOffset": 2019984,
      "byteStride": 12,
      "name": "floatBufferViews",
      "target": 34962
    },
    {
      "buffer": 0,
      "byteLength": 832832,
      "byteOffset": 3269232,
      "byteStride": 16,
      "name": "floatBufferViews",
      "target": 34962
    }
  ],
  "buffers": [
    {
      "byteLength": 4102064,
      "uri": "scene.bin"
    }
  ],
  "images": [
    {
      "uri": "textures/Swings_baseColor.png"
    },
    {
      "uri": "textures/Swings_metallicRoughness.png"
    },
    {
      "uri": "textures/Swings_normal.png"
    }
  ],
  "materials": [
    {
      "doubleSided": true,
      "name": "Swings",
      "normalTexture": {
        "index": 2
      },
      "occlusionTexture": {
        "index": 1
      },
      "pbrMetallicRoughness": {
        "baseColorTexture": {
          "index": 0
        },
        "metallicRoughnessTexture": {
          "index": 1
        },
        "roughnessFactor": 0.8903227310613346
      }
    }
  ],
  "meshes": [
    {
      "name": "Swings_Swings_0",
      "primitives": [
        {
          "attributes": {
            "NORMAL": 1,
            "POSITION": 0,
            "TANGENT": 2,
            "TEXCOORD_0": 3,
            "TEXCOORD_1": 4,
            "TEXCOORD_2": 5
          },
          "indices": 6,
          "material": 0,
          "mode": 4
        }
      ]
    }
  ],
  "nodes": [
    {
      "children": [
        1
      ],
      "matrix": [
        1.0,
        0.0,
        0.0,
        0.0,
        0.0,
        2.220446049250313e-16,
        -1.0,
        0.0,
        0.0,
        1.0,
        2.220446049250313e-16,
        0.0,
        0.0,
        0.0,
        0.0,
        1.0
      ],
      "name": "Sketchfab_model"
    },
    {
      "children": [
        2
      ],
      "matrix": [
        0.009999999776482582,
        0.0,
        0.0,
        0.0,
        0.0,
        0.0,
        0.009999999776482582,
        0.0,
        0.0,
        -0.009999999776482582,
        0.0,
        0.0,
        0.0,
        0.0,
        0.0,
        1.0
      ],
      "name": "de5591a94acf436baf801ed6f98ac1d3.fbx"
    },
    {
      "children": [
        3
      ],
      "name": "RootNode"
    },
    {
      "children": [
        4
      ],
      "matrix": [
        400.0,
        0.0,
        0.0,
        0.0,
        0.0,
        -0.00011285198766586291,
        -399.9999999999841,
        0.0,
        0.0,
        399.9999999999841,
        -0.00011285198766586291,
        0.0,
        0.0,
        0.0,
        0.0,
        1.0
      ],
      "name": "Swings"
    },
    {
      "mesh": 0,
      "name": "Swings_Swings_0"
    }
  ],
  "samplers": [
    {
      "magFilter": 9729,
      "minFilter": 9987,
      "wrapS": 10497,
      "wrapT": 10497
    }
  ],
  "scene": 0,
  "scenes": [
    {
      "name": "Sketchfab_Scene",
      "nodes": [
        0
      ]
    }
  ],
  "textures": [
    {
      "sampler": 0,
      "source": 0
    },
    {
      "sampler": 0,
      "source": 1
    },
    {
      "sampler": 0,
      "source": 2
    }
  ]
}
